<?xml version="1.0" standalone="no"?>
<!DOCTYPE svg PUBLIC "-//W3C//DTD SVG 20010904//EN"
 "http://www.w3.org/TR/2001/REC-SVG-20010904/DTD/svg10.dtd">
<svg version="1.0" xmlns="http://www.w3.org/2000/svg"
 width="500.000000pt" height="500.000000pt" viewBox="0 0 500.000000 500.000000"
 preserveAspectRatio="xMidYMid meet">
<metadata>
Created by potrace 1.14, written by Peter Selinger 2001-2017
</metadata>
<g transform="translate(0.000000,500.000000) scale(0.100000,-0.100000)"
fill="#000000" stroke="none">
<path d="M2417 4774 c-1 -1 -49 -4 -107 -8 -58 -3 -118 -8 -135 -11 -16 -3
-46 -8 -65 -11 -74 -13 -87 -16 -165 -35 -44 -11 -84 -21 -90 -23 -5 -2 -23
-6 -40 -11 -65 -17 -261 -97 -348 -142 -83 -43 -233 -131 -261 -154 -6 -5 -52
-40 -103 -79 -151 -115 -325 -295 -440 -455 -56 -79 -158 -247 -190 -315 -40
-85 -73 -159 -73 -165 0 -4 -6 -21 -14 -38 -33 -72 -112 -369 -114 -427 -1 -8
-3 -28 -6 -45 -24 -129 -28 -438 -6 -585 6 -47 13 -94 15 -105 25 -176 109
-431 201 -616 64 -127 196 -336 248 -392 14 -15 26 -30 26 -33 0 -14 194 -211
280 -285 62 -52 195 -153 231 -174 178 -105 256 -144 414 -210 142 -59 437
-128 603 -141 60 -4 356 -4 402 1 82 8 231 33 308 51 152 34 486 160 533 201
8 7 20 13 25 13 11 0 255 156 264 169 3 4 12 12 21 17 73 41 321 288 420 419
41 56 100 141 131 191 59 96 157 293 178 359 7 22 18 54 25 70 19 42 76 251
80 290 0 6 4 30 9 55 5 25 10 53 12 64 26 139 25 528 -1 666 -3 14 -7 36 -10
50 -3 14 -7 36 -10 50 -12 64 -18 90 -37 155 -11 39 -21 75 -22 80 -4 18 -17
60 -26 80 -5 11 -30 71 -55 132 -26 62 -51 115 -56 119 -5 3 -9 14 -9 24 0 10
-3 20 -8 22 -4 2 -29 40 -55 86 -53 92 -135 209 -205 292 -51 62 -256 267
-288 290 -12 8 -56 41 -98 73 -176 133 -393 248 -606 320 -97 33 -219 67 -266
72 -20 3 -39 7 -43 10 -4 2 -30 7 -57 11 -27 3 -58 8 -69 10 -42 8 -341 24
-348 18z m114 -209 c21 -7 21 -8 -10 -32 -17 -13 -31 -31 -31 -39 0 -8 -4 -14
-10 -14 -5 0 -10 7 -10 15 0 17 -40 56 -51 49 -4 -2 -10 0 -14 6 -3 5 2 10 13
10 21 0 45 24 56 55 7 18 9 17 21 -12 7 -17 23 -34 36 -38z m-523 -148 c35
-21 35 -21 11 -27 -14 -3 -31 -19 -40 -38 l-17 -33 -10 30 c-7 20 -20 33 -36
37 -32 8 -33 20 -2 28 14 3 29 19 37 38 13 30 14 31 17 10 2 -14 18 -32 40
-45z m994 33 c6 -19 19 -32 34 -36 30 -8 30 -16 2 -29 -13 -6 -29 -23 -37 -40
l-15 -30 -8 32 c-7 25 -16 35 -41 41 l-32 9 28 12 c17 6 34 24 40 41 6 17 13
30 15 30 2 0 8 -14 14 -30z m-738 -5 c23 -23 23 -25 5 -30 -18 -6 -24 -18 -20
-39 1 -6 -10 3 -26 20 l-28 29 20 21 c11 12 21 22 22 23 1 1 13 -10 27 -24z
m487 -7 c19 5 8 -17 -11 -23 -12 -4 -20 -15 -20 -28 -1 -20 -2 -20 -16 6 -8
15 -22 27 -30 27 -8 0 -12 5 -9 11 4 6 10 8 13 5 3 -3 12 4 20 16 15 20 16 20
29 2 8 -10 19 -18 24 -16z m-207 -193 c14 -55 9 -53 129 -53 62 0 118 -1 126
-1 12 -1 -128 -111 -177 -140 -11 -6 -7 -28 18 -107 17 -54 35 -109 40 -121 9
-21 -3 -35 -12 -15 -1 4 -44 38 -95 74 l-91 67 -84 -60 c-45 -33 -91 -66 -100
-74 -24 -20 -24 -18 18 113 39 126 41 114 -26 160 -14 9 -51 36 -84 59 -48 36
-54 43 -35 44 13 0 71 1 128 2 l104 2 34 105 c18 58 36 112 39 120 5 12 47
-98 68 -175z m-889 23 c4 -13 8 -26 10 -30 1 -5 3 -12 4 -17 0 -5 19 -8 41 -6
47 4 51 -6 11 -34 -27 -19 -29 -24 -20 -54 5 -17 9 -39 9 -47 -1 -13 -2 -13
-13 1 -7 9 -22 21 -35 28 -20 11 -28 9 -59 -15 -25 -19 -35 -22 -30 -12 3 9 9
32 12 50 6 29 3 35 -24 51 -38 23 -40 39 -3 32 43 -8 61 3 68 41 7 39 18 44
29 12z m1686 -17 c11 -38 12 -39 57 -36 l46 2 -37 -31 -38 -32 15 -42 15 -42
-37 25 c-20 14 -40 25 -44 25 -3 0 -21 -12 -39 -27 l-33 -28 7 25 c16 54 19
80 11 80 -5 0 -22 10 -37 23 l-28 22 48 0 c47 0 48 1 57 38 12 47 22 47 37 -2z
m408 -213 l29 -14 -29 -13 c-16 -7 -32 -23 -35 -37 -8 -30 -22 -31 -26 -2 -2
14 -16 29 -36 38 l-32 16 30 11 c21 8 34 22 42 45 l12 33 8 -31 c5 -20 18 -37
37 -46z m-2452 -5 l28 -10 -25 -8 c-25 -8 -57 -43 -52 -57 1 -5 -2 -8 -8 -8
-5 0 -10 7 -10 16 0 20 -20 39 -50 49 l-23 7 29 13 c16 7 35 25 43 41 l13 29
13 -31 c8 -20 24 -35 42 -41z m-241 -124 c7 -2 -1 -16 -17 -32 -20 -20 -29
-24 -29 -13 0 14 -32 39 -41 33 -2 -2 7 9 21 23 23 24 26 24 40 9 8 -9 20 -18
26 -20z m2934 -14 c0 -3 -7 -5 -15 -5 -9 0 -19 -9 -23 -21 -8 -21 -9 -21 -26
5 -10 16 -22 24 -29 20 -7 -4 1 6 18 22 l29 29 23 -23 c13 -13 23 -25 23 -27z
m-2105 -111 c22 -1 53 -2 69 -3 28 -1 27 -3 -28 -42 -42 -30 -56 -45 -51 -58
19 -47 36 -103 33 -107 -2 -2 -26 12 -53 31 -56 40 -64 42 -91 17 -11 -10 -32
-27 -47 -37 -26 -17 -27 -17 -24 1 2 11 7 26 10 34 29 77 29 74 -31 119 -41
30 -51 41 -37 42 11 1 42 2 70 3 l49 1 18 50 c10 28 21 57 24 65 3 9 15 -13
27 -50 l22 -65 40 -1z m1310 54 l17 -57 57 0 c31 1 63 0 71 0 8 -1 -10 -19
-41 -41 l-57 -40 19 -62 c11 -33 18 -62 16 -64 -1 -2 -26 13 -54 32 -56 40
-65 39 -126 -12 -16 -13 -32 -24 -37 -24 -4 0 3 28 15 63 l23 63 -33 27 c-19
15 -37 27 -40 27 -4 0 -13 7 -21 15 -17 17 -22 15 76 19 l45 1 20 62 c11 34
23 59 26 55 4 -4 14 -33 24 -64z m544 -149 c9 -24 14 -26 58 -24 l48 3 -40
-33 -40 -34 17 -46 17 -45 -42 29 -43 29 -29 -21 c-17 -12 -34 -26 -38 -32 -9
-10 -4 28 9 72 5 17 -2 26 -32 47 -21 14 -33 27 -26 27 6 1 26 3 42 4 17 1 35
3 40 4 6 0 10 8 10 16 0 8 5 26 12 41 13 29 14 28 37 -37z m-2482 21 c7 -37
26 -48 78 -45 l39 3 -24 -19 c-14 -11 -33 -25 -43 -33 -16 -12 -16 -16 -2 -56
8 -23 15 -44 15 -46 0 -2 -19 9 -41 26 l-42 30 -38 -31 c-22 -17 -39 -29 -39
-27 0 1 7 24 14 50 l15 47 -35 21 c-45 28 -43 37 7 35 40 -1 43 1 58 37 19 46
30 48 38 8z m-429 -124 c-10 -5 -18 -15 -18 -23 0 -18 -6 -17 -33 11 -22 22
-23 24 -5 35 10 6 18 18 18 27 0 12 7 9 28 -12 25 -26 25 -30 10 -38z m3342
50 c0 -8 10 -22 23 -31 l22 -15 -22 -6 c-12 -3 -24 -16 -26 -28 l-4 -21 -8 22
c-4 12 -16 25 -26 28 -18 6 -18 8 6 27 14 11 23 24 20 29 -4 5 -1 9 4 9 6 0
11 -6 11 -14z m-1657 -45 c6 -7 23 -18 37 -23 l25 -11 -25 -6 c-14 -4 -31 -20
-40 -37 l-15 -30 -20 30 c-11 17 -31 33 -43 36 -22 5 -21 6 12 24 20 11 37 29
42 45 6 23 8 24 12 6 2 -11 9 -26 15 -34z m-337 -55 c-20 -20 -22 -20 -34 -4
-7 10 -19 18 -27 18 -8 0 -4 10 13 28 l27 27 21 -24 20 -24 -20 -21z m660 39
c15 -14 22 -25 15 -25 -6 0 -20 -9 -30 -19 -20 -20 -20 -20 -26 0 -4 10 -14
19 -22 19 -13 0 -11 5 8 24 13 13 25 24 26 25 1 1 14 -10 29 -24z m-2201 -245
c12 0 9 -8 -12 -29 -26 -27 -29 -28 -37 -10 -5 10 -15 19 -23 19 -7 0 -13 5
-13 12 0 6 3 8 6 5 4 -3 16 5 27 20 20 25 21 25 28 4 5 -11 16 -21 24 -21z
m3775 -15 c0 -3 -6 -5 -14 -5 -8 0 -18 -9 -21 -20 -3 -11 -11 -20 -16 -20 -6
0 -8 4 -4 10 3 5 -6 17 -20 26 l-27 17 29 13 c15 7 24 13 20 13 -5 1 -6 5 -2
10 5 8 55 -32 55 -44z m-3455 -13 c11 -37 11 -37 63 -37 46 0 50 -2 35 -13
-10 -7 -29 -22 -43 -32 -25 -18 -25 -19 -9 -64 l16 -46 -29 18 c-16 9 -34 23
-40 29 -8 10 -19 6 -50 -18 -38 -30 -39 -31 -34 -8 17 75 18 73 -20 102 -21
15 -31 28 -23 28 8 1 29 2 48 3 31 1 35 5 49 44 16 48 22 47 37 -6z m3147 -39
c54 4 55 7 -12 -43 l-25 -18 18 -47 17 -47 -23 16 c-54 39 -64 41 -102 12 -39
-30 -44 -21 -20 38 14 32 14 36 0 36 -8 0 -15 4 -15 8 0 5 -11 15 -25 22 -32
17 -24 25 28 25 41 0 42 1 56 45 l14 45 20 -48 20 -48 49 4z m-611 12 c1 -5 2
-263 3 -572 l1 -563 -185 -1 c-583 -2 -1842 1 -1848 5 -5 3 -8 1106 -3 1136 2
10 2031 5 2032 -5z m-2849 -224 c33 -13 63 -41 86 -82 18 -32 20 -56 21 -191
l2 -155 -53 50 c-31 29 -85 65 -129 86 l-76 36 1 95 c2 103 12 131 54 154 31
18 61 20 94 7z m3787 -26 c24 -23 26 -34 29 -128 l4 -103 -54 -23 c-65 -28
-151 -86 -175 -117 -10 -13 -21 -24 -26 -24 -4 0 -6 69 -4 153 3 163 9 186 62
239 45 45 121 47 164 3z m-3182 -41 c25 -21 25 -22 5 -28 -12 -4 -24 -16 -27
-27 -4 -10 -11 -19 -17 -19 -6 0 -8 3 -5 7 10 9 -23 43 -42 44 -10 0 -8 3 7 9
12 5 28 21 34 36 8 16 14 21 16 13 2 -8 15 -24 29 -35z m2519 -4 c13 -7 21
-17 18 -22 -3 -4 -10 -6 -15 -3 -5 3 -17 -8 -28 -25 l-19 -31 -6 25 c-4 16
-16 28 -32 32 l-25 6 30 19 c17 10 31 27 32 36 0 15 2 14 11 -3 5 -12 21 -27
34 -34z m-2811 -144 c28 -12 63 -39 78 -59 55 -72 59 -95 59 -308 0 -108 -4
-204 -9 -213 -10 -18 2 -32 -146 159 l-86 110 1 168 0 167 26 0 c15 0 50 -11
77 -24z m3146 -3 c0 -16 1 -90 1 -166 0 -144 -1 -148 -51 -207 -30 -36 -30
-36 -100 -128 -34 -46 -68 -81 -74 -79 -9 3 -12 64 -12 218 0 235 4 256 65
316 54 53 89 71 143 72 23 1 27 -3 28 -26z m-3592 -172 c124 -47 299 -219 443
-436 l46 -70 -13 -50 c-11 -44 -11 -71 0 -125 2 -8 4 -15 5 -15 1 0 3 -8 5
-18 12 -62 172 -259 276 -338 17 -13 43 -33 57 -45 31 -24 165 -111 262 -170
86 -52 92 -56 126 -78 16 -11 64 -55 108 -99 86 -87 90 -82 30 39 -37 74 -110
160 -179 210 -22 16 -42 32 -45 35 -3 3 -36 23 -75 44 -160 89 -301 205 -406
335 -61 75 -78 123 -71 205 3 26 39 67 73 82 68 29 177 -28 347 -181 18 -17
56 -47 85 -69 29 -21 61 -45 71 -54 38 -31 153 -101 241 -147 111 -58 119 -63
175 -106 149 -114 263 -286 322 -484 19 -64 22 -101 25 -379 5 -351 14 -325
-89 -255 -76 51 -187 162 -278 278 -84 108 -114 138 -185 183 -84 54 -139 76
-299 122 -387 111 -521 230 -751 669 -24 47 -49 93 -54 103 -5 10 -24 50 -42
88 -17 39 -49 106 -69 150 -37 79 -66 142 -120 260 -52 116 -73 161 -111 244
-22 46 -39 87 -39 91 0 13 76 1 129 -19z m4055 -5 c-4 -11 -14 -34 -22 -51 -9
-16 -17 -32 -17 -35 0 -3 -16 -36 -34 -75 -18 -38 -50 -109 -72 -157 -21 -48
-42 -95 -48 -105 -10 -18 -49 -102 -103 -223 -79 -176 -259 -511 -279 -518 -5
-2 -9 -9 -9 -16 0 -15 -92 -130 -139 -174 -102 -94 -233 -162 -419 -216 -122
-36 -203 -64 -262 -89 -50 -22 -147 -92 -178 -129 -15 -18 -35 -41 -45 -52 -9
-12 -38 -48 -63 -81 -25 -33 -80 -94 -123 -135 -77 -75 -198 -163 -212 -155
-4 3 -7 125 -7 272 1 271 9 349 44 458 24 72 90 205 119 239 14 16 25 32 25
36 0 12 114 123 171 166 30 23 99 65 154 94 55 29 132 73 170 99 39 25 75 48
80 50 6 2 12 7 15 10 3 4 37 31 75 61 39 30 75 60 81 65 6 6 30 27 54 46 23
18 54 44 68 57 15 12 54 36 87 52 95 45 165 24 195 -58 28 -80 -14 -167 -145
-297 -100 -100 -135 -129 -219 -183 -41 -26 -113 -71 -160 -101 -96 -61 -146
-104 -199 -174 -39 -51 -79 -131 -91 -182 -7 -28 -5 -27 27 15 55 72 120 123
301 237 92 58 205 133 250 166 89 66 246 221 246 243 0 8 4 14 8 14 5 0 15 12
22 28 8 15 20 34 27 42 17 22 43 129 38 165 -1 17 -7 41 -13 55 -12 30 12 75
103 195 99 130 149 185 235 256 73 60 97 75 164 97 70 24 110 19 100 -12z
m-3322 -97 c51 -26 84 -64 96 -110 12 -46 16 -209 5 -209 -4 0 -41 19 -82 43
l-74 42 0 110 c1 137 2 145 8 145 3 0 24 -9 47 -21z m2524 -111 l-1 -122 -55
-33 c-30 -18 -68 -37 -83 -43 l-28 -9 4 97 c5 105 16 144 50 181 23 25 96 63
108 55 4 -2 6 -59 5 -126z m-1876 -452 c126 -65 198 -122 350 -276 135 -136
185 -180 259 -225 9 -5 29 -19 43 -30 l27 -20 -46 -92 -46 -93 -35 73 c-50
103 -119 201 -200 285 -39 39 -73 72 -77 72 -3 0 -16 9 -28 21 -25 23 -142 94
-180 108 -14 6 -56 28 -92 51 -37 22 -69 40 -72 40 -2 0 -10 6 -17 13 -8 6
-39 30 -70 52 -31 22 -56 43 -56 46 0 4 42 6 93 5 79 -2 100 -6 147 -30z m361
3 c32 -25 129 -120 194 -189 17 -18 55 -51 85 -74 30 -22 57 -43 60 -46 3 -3
31 -19 62 -35 35 -18 54 -34 50 -41 -4 -6 -28 -35 -54 -64 l-46 -53 -72 48
c-83 57 -151 114 -200 169 -63 72 -144 152 -210 207 -36 30 -67 57 -70 60 -3
3 -15 11 -28 18 -39 21 -17 27 91 27 96 -1 106 -3 138 -27z m294 9 c50 -42
174 -137 210 -161 35 -23 75 -40 139 -61 15 -5 9 -14 -39 -47 -32 -22 -64 -47
-72 -55 -20 -20 -38 -18 -91 12 -77 43 -134 86 -182 135 -129 134 -180 189
-180 192 0 2 44 3 98 3 75 -1 101 -5 117 -18z m382 -6 c44 -31 145 -80 178
-86 15 -3 29 -7 32 -10 2 -2 -27 -23 -65 -45 -59 -35 -75 -41 -110 -37 -40 6
-152 43 -162 55 -3 3 -17 12 -31 20 -15 7 -52 39 -83 70 l-56 57 132 0 c122
-1 136 -3 165 -24z m383 22 c0 -1 -21 -18 -47 -38 -46 -36 -57 -38 -116 -21
-35 10 -105 44 -111 53 -2 4 58 8 135 8 76 0 139 -1 139 -2z m-1823 -1116 c15
-16 60 -33 78 -29 23 6 -9 -14 -38 -24 -23 -7 -38 -22 -52 -52 -11 -23 -24
-42 -28 -43 -5 0 -5 4 -2 10 5 9 -1 25 -23 58 -5 7 -27 19 -48 27 -33 11 -36
14 -19 20 60 20 68 28 90 90 7 18 8 17 17 -10 6 -16 17 -37 25 -47z m2059 -5
c7 -7 23 -15 38 -19 33 -8 44 -24 17 -24 -28 0 -82 -50 -84 -77 -2 -29 -17
-30 -17 -2 0 26 -52 79 -79 79 -11 0 -23 5 -26 10 -4 6 6 10 23 10 34 0 67 32
78 75 l7 29 16 -34 c9 -19 21 -40 27 -47z m-1692 -78 c-8 -19 51 -79 67 -69 8
4 9 3 5 -4 -4 -7 -13 -12 -20 -12 -17 0 -43 -30 -48 -55 -3 -17 -6 -15 -18 13
-9 18 -25 35 -37 38 -29 8 -29 17 -1 29 21 10 32 24 42 58 3 9 8 17 10 17 3 0
3 -7 0 -15z m1312 -64 l29 -14 -25 -6 c-14 -4 -32 -20 -41 -39 l-17 -32 -12
29 c-7 17 -25 35 -43 42 -31 13 -31 13 -7 19 14 3 34 20 45 36 l20 31 11 -26
c6 -15 24 -33 40 -40z"/>
<path d="M1640 3160 c0 -3 22 -19 48 -36 388 -259 564 -374 572 -374 6 0 10
-4 10 -8 0 -4 22 -21 50 -37 27 -17 50 -33 50 -37 0 -5 5 -8 10 -8 6 0 29 -13
51 -30 40 -28 42 -29 67 -12 102 65 579 383 589 391 7 6 15 11 18 11 6 0 55
33 82 55 7 6 37 26 67 45 30 19 53 36 51 39 -7 7 -1413 4 -1424 -3 -6 -4 -11
-4 -11 1 0 8 -108 7 -142 -1 -10 -2 -18 -1 -18 2 0 4 -16 7 -35 7 -19 0 -35
-2 -35 -5z m886 -210 c10 -4 35 -5 54 -3 38 4 38 4 -27 -45 -21 -16 -22 -19
-9 -57 8 -22 12 -42 10 -44 -2 -2 -19 8 -37 22 l-34 26 -36 -25 c-20 -13 -38
-24 -40 -24 -3 0 2 19 10 42 14 41 14 42 -14 64 -15 13 -31 23 -35 24 -5 0 -8
4 -8 9 0 6 20 9 45 7 43 -3 45 -1 56 33 18 57 23 59 34 17 7 -23 19 -42 31
-46z"/>
<path d="M1590 2651 c0 -204 3 -371 8 -371 4 0 108 76 232 169 l225 168 28
-16 c16 -9 43 -28 60 -43 27 -23 29 -29 17 -37 -8 -5 -82 -60 -165 -121 -82
-62 -156 -114 -162 -117 -7 -3 -13 -9 -13 -14 0 -5 280 -9 662 -9 l662 0 -182
135 c-100 75 -182 139 -182 143 1 9 106 75 117 73 4 -1 100 -70 212 -154 112
-84 214 -158 227 -164 l22 -13 0 371 0 370 -26 -17 c-15 -10 -85 -56 -155
-103 -71 -47 -136 -91 -145 -96 -9 -6 -132 -87 -272 -180 -140 -94 -263 -173
-273 -177 -13 -6 -129 66 -445 275 -235 156 -433 286 -439 291 -10 6 -13 -70
-13 -363z m195 119 c-8 -12 42 -60 64 -60 9 -1 1 -7 -17 -15 -19 -8 -36 -24
-39 -35 -7 -26 -20 -26 -28 1 -4 11 -20 26 -37 33 l-30 13 31 13 c19 7 34 22
37 36 3 13 10 24 16 24 5 0 6 -4 3 -10z m1425 -41 c0 -4 12 -10 28 -14 l27 -7
-31 -13 c-19 -8 -36 -24 -42 -42 l-10 -28 -10 27 c-10 24 -26 41 -44 44 -5 1
-14 2 -20 3 -7 1 4 11 25 22 25 13 37 26 37 42 0 22 1 22 20 -3 11 -14 20 -28
20 -31z"/>
</g>
</svg>
